<?xml version="1.0" standalone="no"?><!DOCTYPE svg PUBLIC "-//W3C//DTD SVG 1.1//EN" "http://www.w3.org/Graphics/SVG/1.1/DTD/svg11.dtd"><svg t="1703400417005" class="icon" viewBox="0 0 1024 1024" version="1.1" xmlns="http://www.w3.org/2000/svg" p-id="4005" xmlns:xlink="http://www.w3.org/1999/xlink" width="200" height="200"><path d="M208.384 1024c-24.576 0-46.08-7.68-61.44-23.552-33.792-33.28-18.944-91.136-1.536-119.296l33.28-53.76C81.92 737.28 26.624 611.84 26.624 479.232 26.624 215.04 244.224 0 512 0s485.376 215.04 485.376 479.232c0 264.192-217.6 479.232-485.376 479.232-33.28 0-66.56-3.584-98.816-10.24L259.072 1013.76c-0.512 0-0.512 0.512-1.024 0.512-16.896 6.656-33.792 9.728-49.664 9.728zM512 64c-232.448 0-421.376 186.368-421.376 415.232 0 122.88 54.784 238.592 150.016 317.44 12.288 10.24 15.36 27.648 6.656 41.472l-47.104 76.8c-9.728 15.36-11.264 36.352-8.192 40.448 8.704 8.704 30.72 3.584 42.496-0.512l162.816-69.632c6.144-2.56 13.312-3.072 19.456-1.536 31.232 7.168 63.488 10.752 95.232 10.752 232.448 0 421.376-186.368 421.376-415.232 0-228.864-188.928-415.232-421.376-415.232z" fill="#00668c" p-id="4006"></path><path d="M664.576 380.928m-53.248 0a53.248 53.248 0 1 0 106.496 0 53.248 53.248 0 1 0-106.496 0Z" fill="#00668c" p-id="4007"></path><path d="M367.616 380.928m-53.248 0a53.248 53.248 0 1 0 106.496 0 53.248 53.248 0 1 0-106.496 0Z" fill="#00668c" p-id="4008"></path><path d="M511.488 663.552c-95.232 0-125.44-75.264-126.976-78.336l59.392-23.04v-0.512c1.536 4.096 17.408 37.888 67.072 37.888 53.76 0 76.8-39.424 77.824-40.96 8.704-15.36 27.648-20.992 43.52-12.8 15.36 8.704 20.992 28.16 12.8 43.52-1.536 3.072-40.96 74.24-133.632 74.24z" fill="#00668c" p-id="4009"></path></svg>