<?xml version="1.0" standalone="no"?><!DOCTYPE svg PUBLIC "-//W3C//DTD SVG 1.1//EN" "http://www.w3.org/Graphics/SVG/1.1/DTD/svg11.dtd"><svg t="1703400458470" class="icon" viewBox="0 0 1024 1024" version="1.1" xmlns="http://www.w3.org/2000/svg" p-id="4469" xmlns:xlink="http://www.w3.org/1999/xlink" width="200" height="200"><path d="M496.757029 549.039543c-150.557257 0-272.881371-123.055543-272.881372-274.519772C223.875657 123.055543 346.199771 0 496.757029 0s272.881371 123.055543 272.881371 274.519771c0 151.464229-122.324114 274.519771-272.881371 274.519772z m0-478.061714c-112.932571 0-202.313143 89.936457-202.313143 203.541942s89.380571 203.512686 202.313143 203.512686 202.313143-89.9072 202.313142-203.512686c0-113.605486-89.409829-203.512686-202.313142-203.512685z" fill="#00668c" p-id="4470"></path><path d="M976.632686 1008.142629c-18.812343 0-37.624686-14.189714-37.624686-37.858743v-71.007086c0-194.062629-159.978057-350.237257-348.16-350.237257h-131.744914c-192.892343 0-348.16 160.914286-348.16 354.976914v71.007086c0 18.929371-14.101943 37.858743-37.624686 37.858743S35.693714 998.663314 35.693714 975.023543v-71.007086C35.693714 672.095086 223.875657 482.742857 454.421943 482.742857h131.715657c230.546286 0 418.728229 189.293714 418.728229 421.244343v71.007086c9.4208 18.929371-9.4208 33.119086-28.233143 33.119085z" fill="#00668c" p-id="4471"></path><path d="M510.858971 1022.332343c-14.101943 0-23.522743-4.7104-28.233142-14.189714l-131.715658-203.512686c-4.7104-9.479314-9.4208-23.698286 0-33.148343l131.715658-269.780114c14.1312-23.669029 51.785143-23.669029 61.147428 0l131.774172 269.780114c4.681143 9.479314 4.681143 23.698286 0 33.148343l-131.744915 203.512686c-9.4208 9.479314-18.812343 14.189714-32.943543 14.189714z m-94.090971-241.371429l94.090971 141.984915 94.090972-141.984915-94.090972-189.322971-94.090971 189.293714z" fill="#00668c" p-id="4472"></path></svg>