<?xml version="1.0" standalone="no"?><!DOCTYPE svg PUBLIC "-//W3C//DTD SVG 1.1//EN" "http://www.w3.org/Graphics/SVG/1.1/DTD/svg11.dtd"><svg t="1703400496720" class="icon" viewBox="0 0 1042 1024" version="1.1" xmlns="http://www.w3.org/2000/svg" p-id="4835" xmlns:xlink="http://www.w3.org/1999/xlink" width="203.515625" height="200"><path d="M846.109669 894.702787h-298.929125A48.627815 48.627815 0 0 1 497.04489 846.074972v-118.742338l8.670075-5.654397a47.873895 47.873895 0 0 1 59.559649 4.900477 37.69598 37.69598 0 0 0 20.35583 6.031357 37.69598 37.69598 0 1 0-21.486709-65.214046 47.119976 47.119976 0 0 1-58.42877 4.146558l-8.670075-5.654397v-128.543294a49.004775 49.004775 0 0 1 48.627814-49.004774h94.616911a17.717111 17.717111 0 0 0-3.769598-6.031357 75.391961 75.391961 0 0 1-15.078392-44.858217 75.391961 75.391961 0 1 1 133.066811 43.727338 22.240628 22.240628 0 0 0-4.523518 7.162236h94.616911a49.004775 49.004775 0 0 1 48.627815 49.004774v104.417866a14.701432 14.701432 0 0 0 6.031357-3.769598 75.391961 75.391961 0 0 1 44.858217-15.078392 75.391961 75.391961 0 1 1-43.727338 133.066811 22.240628 22.240628 0 0 0-7.162236-4.523518v94.616911a48.627815 48.627815 0 0 1-47.119975 48.627815zM534.74087 751.458061v94.616911a10.931834 10.931834 0 0 0 10.931834 10.931835h298.929125a10.931834 10.931834 0 0 0 10.931835-10.931835v-118.742338l8.670075-5.654397a48.250855 48.250855 0 0 1 59.936609 4.900477 37.69598 37.69598 0 1 0 19.97887-65.967965 37.69598 37.69598 0 0 0-21.486709 6.785276 47.119976 47.119976 0 0 1-58.42877 4.146558l-8.670075-5.654397v-128.543294a10.931834 10.931834 0 0 0-10.931835-11.308794h-117.234499l-4.146558-8.670075a47.873895 47.873895 0 0 1 3.392639-59.936609 37.69598 37.69598 0 0 0 6.031356-20.35583 37.69598 37.69598 0 1 0-65.214046 21.486709 47.119976 47.119976 0 0 1 4.146558 58.42877l-5.654397 8.670076h-118.742338a10.931834 10.931834 0 0 0-10.931835 11.308794v104.417865a17.717111 17.717111 0 0 0 6.031357-3.769598 75.391961 75.391961 0 0 1 44.858217-15.078392 75.391961 75.391961 0 1 1-43.727337 133.066811 22.240628 22.240628 0 0 0-8.670076-4.146558z" fill="#00668c" p-id="4836"></path><path d="M337.967852 1022.869121a75.391961 75.391961 0 0 1-73.507162-75.391961 71.999323 71.999323 0 0 1 14.324473-43.350378 14.324473 14.324473 0 0 0 4.146558-12.439673H184.168252a49.381734 49.381734 0 0 1-49.381734-49.004775v-305.337442a49.381734 49.381734 0 0 1 49.381734-49.004774h116.857539l5.277438 5.277437a49.004775 49.004775 0 0 1 0 67.852765 35.057262 35.057262 0 0 0-6.031357 20.355829 35.811181 35.811181 0 0 0 71.622363 0 37.69598 37.69598 0 0 0-6.785277-21.486708A48.627815 48.627815 0 0 1 369.632476 495.125394l5.277437-5.277437h117.234499a47.873895 47.873895 0 0 1 42.596458 20.35583l-31.287664 20.732789a11.685754 11.685754 0 0 0-9.423995-4.900478h-101.025227a11.308794 11.308794 0 0 0 3.392638 10.931835 75.391961 75.391961 0 0 1 15.078392 44.858216 75.391961 75.391961 0 1 1-132.689851-43.727337 13.570553 13.570553 0 0 0 4.146558-12.062714H184.168252a11.308794 11.308794 0 0 0-11.685754 11.308794v307.976161a11.308794 11.308794 0 0 0 11.685754 11.308794h116.857539l5.277438 5.654397a49.004775 49.004775 0 0 1 0 67.852765 33.926382 33.926382 0 0 0-6.031357 19.978869 37.69598 37.69598 0 1 0 71.622363 0 35.434222 35.434222 0 0 0-6.785277-21.109749 48.627815 48.627815 0 0 1 2.638719-66.721885l5.277437-5.654397h117.234499a12.062714 12.062714 0 0 0 10.177915-6.031357l33.172463 17.340151a49.004775 49.004775 0 0 1-43.350378 26.387186h-97.255629a12.439674 12.439674 0 0 0 3.392638 11.308794A75.391961 75.391961 0 0 1 337.967852 1022.869121z" fill="#00668c" p-id="4837"></path><path d="M339.475691 652.694593a75.391961 75.391961 0 0 1-59.182689-117.2345 15.832312 15.832312 0 0 0 4.146558-7.162236H180.398654a49.004775 49.004775 0 0 1-49.004775-49.004774v-94.239952a16.209272 16.209272 0 0 0-6.031356 3.392639 75.391961 75.391961 0 0 1-44.858217 15.078392 75.391961 75.391961 0 1 1 43.727337-132.689851 15.832312 15.832312 0 0 0 7.162236 4.146558v-94.239952a49.004775 49.004775 0 0 1 49.004775-48.627814H308.564987l5.654398 8.670075A47.873895 47.873895 0 0 1 308.564987 200.342827a34.680302 34.680302 0 0 0-6.031356 19.97887 37.69598 37.69598 0 1 0 71.999322 0 37.69598 37.69598 0 0 0-7.162236-21.109749 47.496935 47.496935 0 0 1-3.769598-58.42877l5.654397-8.670075h118.742338a48.627815 48.627815 0 0 1 48.627815 48.627814v298.552166a49.004775 49.004775 0 0 1-48.627815 49.004774h-93.486031a13.947513 13.947513 0 0 0 3.392638 6.031357 72.753242 72.753242 0 0 1 15.455352 44.858217 75.391961 75.391961 0 0 1-73.884122 73.507162zM133.278678 346.980191a49.758694 49.758694 0 0 1 27.141106 8.293116l8.670076 5.654397v118.365379a10.931834 10.931834 0 0 0 11.308794 11.308794H308.564987l5.654398 8.670075A47.873895 47.873895 0 0 1 308.564987 558.831601a35.057262 35.057262 0 0 0-6.031356 20.35583 37.69598 37.69598 0 0 0 71.999322 0 37.69598 37.69598 0 0 0-7.162236-21.486709 47.496935 47.496935 0 0 1-3.769598-58.42877l5.654397-8.670075h118.742338a10.931834 10.931834 0 0 0 10.931835-11.308794V180.740917a10.931834 10.931834 0 0 0-10.931835-10.931834h-93.486031a16.209272 16.209272 0 0 0 3.392638 6.031357 72.376282 72.376282 0 0 1 15.455352 44.481257 75.391961 75.391961 0 1 1-147.391283 0 72.753242 72.753242 0 0 1 14.324472-43.350378 15.832312 15.832312 0 0 0 4.146558-7.162236H180.398654a10.931834 10.931834 0 0 0-11.308794 10.931834v118.742339L160.419784 306.645492a48.250855 48.250855 0 0 1-59.559649-4.900477 35.057262 35.057262 0 0 0-18.47103-7.539196 37.69598 37.69598 0 1 0 21.486709 64.837086 47.119976 47.119976 0 0 1 29.402864-12.062714z" fill="#00668c" p-id="4838"></path><path d="M857.795423 526.036098h-128.920254l-5.654397-9.047035a47.873895 47.873895 0 0 1 4.900478-59.559649 34.680302 34.680302 0 0 0 6.031357-19.97887 37.69598 37.69598 0 1 0-64.837087 21.109749 47.496935 47.496935 0 0 1 3.769598 58.42877l-5.277437 9.047035h-118.742338a49.004775 49.004775 0 0 1-49.004775-49.004774V178.479159a49.004775 49.004775 0 0 1 49.004775-49.004775h94.239951a14.324473 14.324473 0 0 0-3.392638-6.031357 75.391961 75.391961 0 0 1-15.078393-42.973418 75.391961 75.391961 0 1 1 132.689852 43.727338 15.832312 15.832312 0 0 0-4.146558 7.162236h104.417866a49.004775 49.004775 0 0 1 48.627814 49.004775V272.71911A13.947513 13.947513 0 0 0 911.700675 268.949512a75.391961 75.391961 0 0 1 44.858216-15.078392 75.391961 75.391961 0 1 1-43.727337 132.689851 20.355829 20.355829 0 0 0-7.162236-4.146558v94.239951a49.004775 49.004775 0 0 1-47.873895 49.381734z m-104.417866-37.69598h104.417866a11.308794 11.308794 0 0 0 10.931834-11.308794V358.288985l8.670075-5.277437a48.250855 48.250855 0 0 1 59.936609 4.523518 33.172463 33.172463 0 0 0 19.97887 6.031357 37.69598 37.69598 0 0 0 0-71.622363 34.303342 34.303342 0 0 0-21.109749 6.785276 48.250855 48.250855 0 0 1-58.80573 3.769598l-8.670075-5.277437V178.479159a10.931834 10.931834 0 0 0-10.931834-11.308795h-128.920254L723.220772 158.500289a48.250855 48.250855 0 0 1 4.900478-59.559649 35.057262 35.057262 0 0 0 6.031357-18.471031 37.69598 37.69598 0 1 0-64.837087 21.486709 47.496935 47.496935 0 0 1 3.769598 58.42877l-5.277437 8.670076h-118.742338a10.931834 10.931834 0 0 0-11.308794 11.308794v298.552165a11.308794 11.308794 0 0 0 11.308794 11.308794h94.239951a13.193593 13.193593 0 0 0-3.392638-6.408317 75.391961 75.391961 0 0 1-15.078393-44.481257 75.391961 75.391961 0 1 1 147.014324 0 72.753242 72.753242 0 0 1-14.324472 43.350378 16.963191 16.963191 0 0 0-4.146558 5.654397z" fill="#00668c" p-id="4839"></path></svg>